<?xml version="1.0" encoding="UTF-8" standalone="no"?>
<!DOCTYPE svg PUBLIC "-//W3C//DTD SVG 1.1//EN" "http://www.w3.org/Graphics/SVG/1.1/DTD/svg11.dtd">
<svg width="100%" height="100%" viewBox="0 0 1123 466" version="1.1" xmlns="http://www.w3.org/2000/svg" xmlns:xlink="http://www.w3.org/1999/xlink" xml:space="preserve" xmlns:serif="http://www.serif.com/" style="fill-rule:evenodd;clip-rule:evenodd;stroke-linecap:round;stroke-linejoin:round;stroke-miterlimit:1.5;">
    <g transform="matrix(1,0,0,1,-0.000419531,-0.000808945)">
        <g transform="matrix(1,0,0,1,-26.0321,-25.6193)">
            <g transform="matrix(0.439913,0,0,0.461488,-64.8307,196.552)">
                <ellipse cx="374.983" cy="324.43" rx="73.878" ry="70.424" style="fill:none;stroke:rgb(35,31,32);stroke-width:9.24px;"/>
            </g>
        </g>
        <g transform="matrix(1,0,0,1,-26.0321,-25.6193)">
            <g transform="matrix(0.439913,0,0,0.461488,909.347,196.552)">
                <ellipse cx="374.983" cy="324.43" rx="73.878" ry="70.424" style="fill:none;stroke:rgb(35,31,32);stroke-width:18.48px;"/>
            </g>
        </g>
        <g transform="matrix(1,0,0,1,-26.0321,-25.6193)">
            <g transform="matrix(1,0,0,1,-146.209,40.1179)">
                <g transform="matrix(1,0,0,1,214.372,412.84)">
                    <text x="0px" y="0px" style="font-family:'RobotoCondensed-Regular', 'Roboto Condensed';font-size:33.333px;fill:rgb(35,31,32);">need</text>
                </g>
                <g transform="matrix(1,0,0,1,170.028,450.34)">
                    <text x="0px" y="0px" style="font-family:'RobotoCondensed-Regular', 'Roboto Condensed';font-size:33.333px;fill:rgb(35,31,32);">information</text>
                </g>
            </g>
        </g>
        <g transform="matrix(1,0,0,1,-26.0321,-25.6193)">
            <g transform="matrix(1,0,0,1,308.016,36.8139)">
                <g transform="matrix(1,0,0,1,211.54,412.84)">
                    <g transform="matrix(33.333,0,0,33.333,135.659,0)">
                    </g>
                    <text x="0px" y="0px" style="font-family:'RobotoCondensed-Regular', 'Roboto Condensed';font-size:33.333px;fill:rgb(35,31,32);">allowed t<tspan x="118.928px " y="0px ">o</tspan></text>
                </g>
                <g transform="matrix(1,0,0,1,213.159,450.34)">
                    <text x="0px" y="0px" style="font-family:'RobotoCondensed-Regular', 'Roboto Condensed';font-size:33.333px;fill:rgb(35,31,32);">see data?</text>
                </g>
            </g>
        </g>
        <g transform="matrix(1,0,0,1,-26.0321,-25.6193)">
            <g transform="matrix(1,0,0,1,428.502,-41.1803)">
                <g>
                    <g transform="matrix(1,0,0,1,224.081,412.84)">
                        <text x="0px" y="0px" style="font-family:'RobotoCondensed-Regular', 'Roboto Condensed';font-size:33.333px;fill:rgb(35,31,32);">y</text>
                    </g>
                    <g transform="matrix(1,0,0,1,237.753,412.84)">
                        <text x="0px" y="0px" style="font-family:'RobotoCondensed-Regular', 'Roboto Condensed';font-size:33.333px;fill:rgb(35,31,32);">es</text>
                    </g>
                </g>
            </g>
        </g>
        <g transform="matrix(1,0,0,1,-26.0321,-25.6193)">
            <g transform="matrix(1,0,0,1,651.004,86.858)">
                <text x="0px" y="0px" style="font-family:'RobotoCondensed-Regular', 'Roboto Condensed';font-size:33.333px;fill:rgb(35,31,32);">no</text>
            </g>
        </g>
        <g transform="matrix(1,0,0,1,-26.0321,-25.6193)">
            <g transform="matrix(1,0,0,1,88.9585,-72.9804)">
                <g transform="matrix(1,0,0,1,201.198,412.84)">
                    <text x="0px" y="0px" style="font-family:'RobotoCondensed-Regular', 'Roboto Condensed';font-size:33.333px;fill:rgb(35,31,32);">click a</text>
                </g>
                <g transform="matrix(1,0,0,1,220.191,450.34)">
                    <g transform="matrix(33.333,0,0,33.333,46.4188,0)">
                    </g>
                    <text x="0px" y="0px" style="font-family:'RobotoCondensed-Regular', 'Roboto Condensed';font-size:33.333px;fill:rgb(35,31,32);">link</text>
                </g>
            </g>
            <g transform="matrix(1,0,0,1.16423,-61.2675,-55.854)">
                <path d="M500,304.38C500,294.928 491.066,287.253 480.061,287.253L312.823,287.253C301.819,287.253 292.884,294.928 292.884,304.38L292.884,386.425C292.884,395.877 301.819,403.551 312.823,403.551L480.061,403.551C491.066,403.551 500,395.877 500,386.425L500,304.38Z" style="fill:none;stroke:rgb(35,31,32);stroke-width:5.76px;"/>
            </g>
        </g>
        <g transform="matrix(1,0,0,1,-26.0321,-25.6193)">
            <g transform="matrix(1,0,0,1,504.087,-249.829)">
                <g transform="matrix(1,0,0,1,88.8772,-76.5123)">
                    <g transform="matrix(1,0,0,1,223.112,412.84)">
                        <text x="0px" y="0px" style="font-family:'RobotoCondensed-Regular', 'Roboto Condensed';font-size:33.333px;fill:rgb(35,31,32);">see</text>
                    </g>
                    <g transform="matrix(1,0,0,1,221.631,450.34)">
                        <g transform="matrix(33.333,0,0,33.333,49.3647,0)">
                        </g>
                        <text x="0px" y="0px" style="font-family:'RobotoCondensed-Regular', 'Roboto Condensed';font-size:33.333px;fill:rgb(35,31,32);">401</text>
                    </g>
                </g>
                <g transform="matrix(1,0,0,1.16423,-61.2675,-55.854)">
                    <path d="M500,304.38C500,294.928 491.066,287.253 480.061,287.253L312.823,287.253C301.819,287.253 292.884,294.928 292.884,304.38L292.884,386.425C292.884,395.877 301.819,403.551 312.823,403.551L480.061,403.551C491.066,403.551 500,395.877 500,386.425L500,304.38Z" style="fill:none;stroke:rgb(35,31,32);stroke-width:5.76px;"/>
                </g>
            </g>
        </g>
        <g transform="matrix(1,0,0,1,-26.0321,-25.6193)">
            <g transform="matrix(1,0,0,1,504.087,1.7053e-13)">
                <g transform="matrix(1,0,0,1,88.4296,-79.8164)">
                    <g transform="matrix(1,0,0,1,223.112,412.84)">
                        <text x="0px" y="0px" style="font-family:'RobotoCondensed-Regular', 'Roboto Condensed';font-size:33.333px;fill:rgb(35,31,32);">see</text>
                    </g>
                    <g transform="matrix(1,0,0,1,218.095,450.34)">
                        <g transform="matrix(33.333,0,0,33.333,58.3165,0)">
                        </g>
                        <text x="0px" y="0px" style="font-family:'RobotoCondensed-Regular', 'Roboto Condensed';font-size:33.333px;fill:rgb(35,31,32);">data</text>
                    </g>
                </g>
                <g transform="matrix(1,0,0,1.16423,-61.2675,-55.854)">
                    <path d="M500,304.38C500,294.928 491.066,287.253 480.061,287.253L312.823,287.253C301.819,287.253 292.884,294.928 292.884,304.38L292.884,386.425C292.884,395.877 301.819,403.551 312.823,403.551L480.061,403.551C491.066,403.551 500,395.877 500,386.425L500,304.38Z" style="fill:none;stroke:rgb(35,31,32);stroke-width:5.76px;"/>
                </g>
            </g>
        </g>
        <g transform="matrix(1,0,0,1,-26.0321,-25.6193)">
            <g transform="matrix(1,0,0,1,-2.23747,5.68434e-14)">
                <g transform="matrix(0.581766,-0.581766,0.638851,0.638851,-62.7043,243.81)">
                    <path d="M514.979,551.87L514.979,629.349L429.898,629.349L429.898,551.87L514.979,551.87ZM507.382,558.787L437.494,558.787L437.494,622.431L507.382,622.431L507.382,558.787Z" style="fill:rgb(35,31,32);"/>
                </g>
                <g transform="matrix(1,0,0,1,575.454,364.046)">
                    <text x="0px" y="0px" style="font-family:'RobotoCondensed-Bold', 'Roboto Condensed';font-weight:700;font-size:50px;fill:rgb(35,31,32);">X</text>
                </g>
            </g>
        </g>
        <g transform="matrix(1,0,0,1,-26.0321,-25.6193)">
            <g transform="matrix(0.876839,-2.12175e-16,-2.12175e-16,1,16.3348,5.68434e-14)">
                <path d="M132.629,346.272L231.617,346.272" style="fill:none;stroke:rgb(35,31,32);stroke-width:4.43px;stroke-linecap:butt;"/>
            </g>
            <g transform="matrix(-1.07447e-16,0.563238,-0.737253,-1.31449e-16,389.163,239.169)">
                <path d="M190.157,215.081L204.286,242.093L176.027,242.093L190.157,215.081Z" style="fill:rgb(34,34,34);"/>
            </g>
        </g>
        <g transform="matrix(1,0,0,1,-26.0321,-25.6193)">
            <g transform="matrix(1,0,0,1,309.201,0)">
                <g transform="matrix(0.876839,-2.12175e-16,-2.12175e-16,1,16.3348,5.68434e-14)">
                    <path d="M132.629,346.272L231.617,346.272" style="fill:none;stroke:rgb(35,31,32);stroke-width:4.43px;stroke-linecap:butt;"/>
                </g>
                <g transform="matrix(-1.07447e-16,0.563238,-0.737253,-1.31449e-16,389.163,239.169)">
                    <path d="M190.157,215.081L204.286,242.093L176.027,242.093L190.157,215.081Z" style="fill:rgb(34,34,34);"/>
                </g>
            </g>
        </g>
        <g transform="matrix(1,0,0,1,-26.0321,-25.6193)">
            <g transform="matrix(1,0,0,-1,503.406,441.451)">
                <g transform="matrix(1.3903,4.67937e-16,4.3611e-16,1,-102.591,9.48176e-14)">
                    <path d="M132.629,346.272L231.617,346.272" style="fill:none;stroke:rgb(35,31,32);stroke-width:3.44px;stroke-linecap:butt;"/>
                </g>
                <g transform="matrix(-1.07447e-16,0.563238,-0.737253,-1.31449e-16,389.163,239.169)">
                    <path d="M190.157,215.081L204.286,242.093L176.027,242.093L190.157,215.081Z" style="fill:rgb(34,34,34);"/>
                </g>
                <g transform="matrix(0.999992,-0.000424817,-0.000424817,0.976857,-503.297,-234.158)">
                    <path d="M587.294,383.966L587.4,594.437" style="fill:none;stroke:rgb(35,31,32);stroke-width:4.22px;stroke-linecap:butt;"/>
                </g>
            </g>
        </g>
        <g transform="matrix(1,0,0,1,-26.0321,-25.6193)">
            <g transform="matrix(1,0,0,1,808.401,0)">
                <g transform="matrix(0.876839,-2.12175e-16,-2.12175e-16,1,16.3348,5.68434e-14)">
                    <path d="M132.629,346.272L231.617,346.272" style="fill:none;stroke:rgb(35,31,32);stroke-width:4.43px;stroke-linecap:butt;"/>
                </g>
                <g transform="matrix(-1.07447e-16,0.563238,-0.737253,-1.31449e-16,389.163,239.169)">
                    <path d="M190.157,215.081L204.286,242.093L176.027,242.093L190.157,215.081Z" style="fill:rgb(34,34,34);"/>
                </g>
            </g>
        </g>
        <g transform="matrix(1,0,0,1,-26.0321,-25.6193)">
            <g transform="matrix(1,0,0,1,503.371,0)">
                <g transform="matrix(0.893179,-1.90772e-16,-1.91719e-16,1,12.55,6.95292e-14)">
                    <path d="M132.629,346.272L231.617,346.272" style="fill:none;stroke:rgb(35,31,32);stroke-width:4.39px;stroke-linecap:butt;"/>
                </g>
                <g transform="matrix(-1.07447e-16,0.563238,-0.737253,-1.31449e-16,389.163,239.169)">
                    <path d="M190.157,215.081L204.286,242.093L176.027,242.093L190.157,215.081Z" style="fill:rgb(34,34,34);"/>
                </g>
            </g>
        </g>
        <g transform="matrix(1,0,0,1,-26.0321,-25.6193)">
            <g transform="matrix(1,0,0,1,827.969,38.5554)">
                <g transform="matrix(1,0,0,1,224.813,412.84)">
                    <text x="0px" y="0px" style="font-family:'RobotoCondensed-Regular', 'Roboto Condensed';font-size:33.333px;fill:rgb(35,31,32);">got</text>
                </g>
                <g transform="matrix(1,0,0,1,170.028,450.34)">
                    <text x="0px" y="0px" style="font-family:'RobotoCondensed-Regular', 'Roboto Condensed';font-size:33.333px;fill:rgb(35,31,32);">information</text>
                </g>
            </g>
        </g>
    </g>
</svg>
