<?xml version="1.0" encoding="UTF-8" standalone="no"?>
<!DOCTYPE svg PUBLIC "-//W3C//DTD SVG 1.1//EN" "http://www.w3.org/Graphics/SVG/1.1/DTD/svg11.dtd">
<svg width="100%" height="100%" viewBox="0 0 757 108" version="1.1" xmlns="http://www.w3.org/2000/svg" xmlns:xlink="http://www.w3.org/1999/xlink" xml:space="preserve" xmlns:serif="http://www.serif.com/" style="fill-rule:evenodd;clip-rule:evenodd;stroke-linejoin:round;stroke-miterlimit:2;">
    <g transform="matrix(1,0,0,1.11364,0,-7.10543e-15)">
        <rect x="0" y="0" width="757" height="88" style="fill:#111827;"/>
    </g>
    <g transform="matrix(1,0,0,1,-30.4022,18.7409)">
        <path d="M86.48,50.767L78.277,50.767L78.277,9.712L111.09,9.712C119.319,9.764 123.433,13.879 123.433,22.056L123.472,50.728L115.191,50.728L115.191,23.267C115.113,19.777 113.29,17.994 109.722,17.915L86.48,17.915L86.48,50.767Z" style="fill:#ccc;fill-rule:nonzero;"/>
        <path d="M167.847,42.564C171.936,42.512 173.98,40.494 173.98,36.509L173.98,29.4C173.98,25.676 171.676,23.814 167.066,23.814L145.269,23.814L145.269,15.806L167.105,15.806C171.715,15.936 174.006,13.918 173.98,9.751L173.98,7.72C173.98,3.605 171.936,1.548 167.847,1.548L132.965,1.548L132.965,-6.655L169.879,-6.655C177.587,-6.108 181.702,-2.006 182.222,5.65L182.222,11.744C182.196,15.884 180.686,18.619 177.691,19.947C180.686,20.884 182.196,23.358 182.222,27.369L182.222,38.462C181.702,46.145 177.587,50.246 169.879,50.767L132.965,50.767L132.965,42.564L167.847,42.564Z" style="fill:#ccc;fill-rule:nonzero;"/>
        <path d="M194.488,50.767L194.488,21.9C194.514,13.853 198.616,9.816 206.793,9.79L223.394,9.79L223.394,17.876L208.082,17.876C204.54,17.902 202.743,19.608 202.691,22.994L202.691,50.767L194.488,50.767Z" style="fill:#ccc;fill-rule:nonzero;"/>
        <path d="M276.637,-6.655L276.637,50.728L243.824,50.728C235.647,50.598 231.532,46.405 231.48,38.15L231.48,21.783C231.506,14.022 235.595,9.999 243.746,9.712L264.332,9.712L264.332,17.915L245.426,17.915C241.597,17.889 239.683,19.764 239.683,23.54L239.683,36.275C239.709,40.415 242.079,42.512 246.793,42.564L268.433,42.564L268.433,-6.655L276.637,-6.655Z" style="fill:#ccc;fill-rule:nonzero;"/>
        <path d="M294.371,9.751L294.371,36.978C294.397,40.702 296.311,42.577 300.113,42.603L318.512,42.603L318.512,50.767L298.433,50.767C290.282,50.741 286.181,46.73 286.129,38.736L286.129,9.751L294.371,9.751ZM331.324,9.751L331.324,54.869C331.272,63.02 327.17,67.121 319.019,67.173L294.371,67.173L294.371,58.97L317.73,58.97C321.298,58.944 323.095,57.225 323.121,53.814L323.121,9.751L331.324,9.751Z" style="fill:#ccc;fill-rule:nonzero;"/>
        <path d="M348.98,-6.655L348.98,42.564L370.347,42.564C375.321,42.564 377.795,40.546 377.769,36.509L377.769,23.423C377.743,19.725 375.712,17.876 371.676,17.876L353.121,17.876L353.121,9.751L373.59,9.751C381.871,9.751 386.012,13.957 386.012,22.369L386.012,38.462C385.985,46.561 381.936,50.663 373.863,50.767L340.816,50.767L340.855,-6.655L348.98,-6.655Z" style="fill:#06b6d4;fill-rule:nonzero;"/>
        <path d="M403.746,9.751L403.746,36.978C403.772,40.702 405.686,42.577 409.488,42.603L427.887,42.603L427.887,50.767L407.808,50.767C399.657,50.741 395.556,46.73 395.504,38.736L395.504,9.751L403.746,9.751ZM440.699,9.751L440.699,54.869C440.647,63.02 436.545,67.121 428.394,67.173L403.746,67.173L403.746,58.97L427.105,58.97C430.673,58.944 432.47,57.225 432.496,53.814L432.496,9.751L440.699,9.751Z" style="fill:#06b6d4;fill-rule:nonzero;"/>
        <path d="M458.394,50.767L450.191,50.767L450.191,9.712L483.004,9.712C491.233,9.764 495.347,13.879 495.347,22.056L495.387,50.728L487.105,50.728L487.105,23.267C487.027,19.777 485.204,17.994 481.637,17.915L458.394,17.915L458.394,50.767Z" style="fill:#ccc;fill-rule:nonzero;"/>
        <path d="M509.019,17.915L509.019,9.751L537.691,9.751C545.868,9.751 549.983,13.762 550.035,21.783L550.035,50.767L516.246,50.767C508.694,50.767 504.918,47.355 504.918,40.533L504.918,34.869C504.918,27.941 508.407,24.465 515.387,24.439L537.066,24.439L537.066,32.642L519.019,32.642C515.087,32.642 513.108,34.244 513.082,37.447L513.121,37.447C513.121,40.858 514.944,42.564 518.59,42.564L541.832,42.564L541.793,24.4C541.793,20.077 539.957,17.915 536.285,17.915L509.019,17.915Z" style="fill:#ccc;fill-rule:nonzero;"/>
        <path d="M571.871,9.595L571.871,-6.655L580.074,-6.655L580.074,9.595L592.379,9.595L592.379,17.798L580.074,17.798L580.074,50.767L571.871,50.767L571.871,17.837L559.566,17.837L559.566,9.595L571.871,9.595Z" style="fill:#ccc;fill-rule:nonzero;"/>
        <path d="M606.832,9.79L606.832,37.369C606.858,40.806 608.629,42.538 612.144,42.564L634.293,42.564L634.293,9.79L642.535,9.79L642.535,50.767L610.933,50.767C602.756,50.741 598.655,46.639 598.629,38.462L598.629,9.79L606.832,9.79Z" style="fill:#ccc;fill-rule:nonzero;"/>
        <path d="M653.316,50.767L653.316,21.9C653.342,13.853 657.444,9.816 665.621,9.79L682.222,9.79L682.222,17.876L666.91,17.876C663.368,17.902 661.571,19.608 661.519,22.994L661.519,50.767L653.316,50.767Z" style="fill:#ccc;fill-rule:nonzero;"/>
        <path d="M725.152,42.564C729.241,42.512 731.285,40.494 731.285,36.509L731.285,29.4C731.285,25.676 728.98,23.814 724.371,23.814L702.574,23.814L702.574,15.806L724.41,15.806C729.019,15.936 731.311,13.918 731.285,9.751L731.285,7.72C731.285,3.605 729.241,1.548 725.152,1.548L690.269,1.548L690.269,-6.655L727.183,-6.655C734.892,-6.108 739.006,-2.006 739.527,5.65L739.527,11.744C739.501,15.884 737.991,18.619 734.996,19.947C737.991,20.884 739.501,23.358 739.527,27.369L739.527,38.462C739.006,46.145 734.892,50.246 727.183,50.767L690.269,50.767L690.269,42.564L725.152,42.564Z" style="fill:#ccc;fill-rule:nonzero;"/>
    </g>
</svg>
